<?xml version="1.0" encoding="UTF-8"?>
<svg width="1432.8" height="361.24" version="1.1" viewBox="0 0 379.09158 95.578269" xmlns="http://www.w3.org/2000/svg" xmlns:xlink="http://www.w3.org/1999/xlink">
 <defs>
  <linearGradient id="linearGradient5643" x1="53.721" x2="39.377" y1="116.78" y2="168.18" gradientTransform="translate(-24.815 -.20214)" gradientUnits="userSpaceOnUse">
   <stop stop-color="#00ffc5" offset="0"/>
   <stop stop-color="#009eff" offset="1"/>
  </linearGradient>
 </defs>
 <g transform="translate(42.135 -100.29)">
  <path d="m54.454 167.93c-2.304 0-4.081-0.57599-5.3311-1.728-1.25-1.152-1.9976-2.7574-2.2427-4.8163h-0.36766c-0.68629 2.353-2.0344 4.179-4.0442 5.4781-2.0099 1.2991-4.4854 1.9486-7.4267 1.9486-3.8237 0-6.863-1.0049-9.118-3.0148s-3.3825-4.8041-3.3825-8.3826c0-7.6474 5.6129-11.471 16.839-11.471h6.6914v-2.5001c0-2.4021-0.58826-4.2158-1.7648-5.4414-1.1765-1.2255-3.0883-1.8383-5.7355-1.8383-2.402 0-4.3384 0.4657-5.809 1.3971-1.4706 0.9314-2.7207 2.1324-3.7501 3.6031l-5.3678-4.559c1.1765-2.1079 3.076-3.8849 5.6987-5.331s6.0173-2.1692 10.184-2.1692c5.0002 0 8.9096 1.1642 11.728 3.4928 2.8187 2.3286 4.2281 5.7967 4.2281 10.405v17.868h4.4854v7.059zm-16.251-5.5884c2.255 0 4.13-0.52697 5.6252-1.5809 1.4951-1.054 2.2427-2.4878 2.2427-4.3016v-5.0737h-6.4708c-5.1472 0-7.7208 1.6177-7.7208 4.8531v1.4706c0 1.5197 0.56374 2.6716 1.6912 3.456 1.1275 0.78434 2.6717 1.1765 4.6325 1.1765zm30.001-48.825h9.4121v31.913h0.44118l5.5149-6.0296 9.3386-9.4121h10.956l-15.074 14.927 16.692 23.015h-11.25l-12.133-17.648-4.4855 4.2648v13.383h-9.4121zm61.399 55.296c-3.0393 0-5.7355-0.4657-8.0885-1.3971-2.3531-0.93141-4.3262-2.255-5.9193-3.9707-1.5932-1.7158-2.8064-3.7869-3.6398-6.2134-0.83336-2.4266-1.25-5.1595-1.25-8.1988 0-3.0883 0.42891-5.858 1.2868-8.3091 0.85789-2.4511 2.0711-4.5345 3.6398-6.2502 1.5687-1.7158 3.4682-3.0393 5.6987-3.9707 2.2305-0.9314 4.7428-1.3971 7.537-1.3971 2.7452 0 5.2208 0.45343 7.4267 1.3604 2.206 0.90689 4.081 2.1937 5.6252 3.8604 1.5442 1.6667 2.7329 3.6766 3.5663 6.0296 0.83336 2.353 1.25 4.9511 1.25 7.7944v3.0883h-26.618v0.95591c0 2.7452 0.85785 4.9634 2.5736 6.6546 1.7158 1.6912 4.1178 2.5368 7.2061 2.5368 2.353 0 4.3752-0.47795 6.0664-1.4339 1.6912-0.95592 3.1006-2.2182 4.2281-3.7869l5.3678 5.3678c-1.3726 2.0099-3.3702 3.7256-5.9928 5.1472-2.6226 1.4216-5.9438 2.1324-9.9636 2.1324zm-0.66178-32.795c-2.6472 0-4.7796 0.83337-6.3973 2.5001-1.6177 1.6667-2.4265 3.8726-2.4265 6.6179v0.51474h17.206v-0.66181c0-2.7452-0.74753-4.9266-2.2427-6.5443-1.4951-1.6177-3.5418-2.4266-6.1399-2.4266zm27.354 24.486h9.4121v-23.089h-9.4121v-7.4267h18.824v10.368h0.58826c0.34314-1.3236 0.82112-2.6104 1.4339-3.8604 0.61278-1.2501 1.3971-2.353 2.353-3.309s2.1202-1.728 3.4928-2.3162c1.3726-0.58826 3.0148-0.88241 4.9266-0.88241h4.1178v8.8238h-7.7944c-2.8432 0-5.0737 0.83337-6.6914 2.5001-1.6177 1.6667-2.4266 3.7991-2.4266 6.3973v12.795h13.162v7.4267h-31.986zm71.032-30.516h9.5592l-18.162 44.707c-1.0294 2.5981-2.402 4.5712-4.1178 5.9193-1.7157 1.3481-4.1422 2.0221-7.2796 2.0221h-6.912v-7.4267h9.0444l2.8677-7.6473-15.295-37.575h10l5.809 15.883 4.0442 12.059h0.5147l4.0443-12.059zm48.605-13.383v37.281c0 2.304-0.39218 4.3751-1.1765 6.2134-0.78437 1.8383-1.8996 3.3947-3.3457 4.6693-1.4461 1.2746-3.1864 2.2672-5.2208 2.978-2.0344 0.71081-4.3016 1.0662-6.8017 1.0662-4.8531 0-8.6645-1.2255-11.434-3.6766-2.7697-2.4511-4.5467-5.711-5.3311-9.7797l9.0444-1.9118c0.44119 2.157 1.2378 3.934 2.3898 5.3311 1.152 1.3971 2.929 2.0957 5.3311 2.0957 2.206 0 3.8972-0.64952 5.0737-1.9486 1.1765-1.2991 1.7648-3.3457 1.7648-6.1399v-28.236h-17.353v-7.9414zm28.677 52.208c-4.412 0-8.1743-0.75982-11.287-2.2795-3.1129-1.5197-5.6497-3.5295-7.6105-6.0296l5.809-6.0296c1.9118 2.206 3.9829 3.8359 6.2134 4.8899 2.2305 1.054 4.6202 1.5809 7.1693 1.5809 2.9413 0 5.1962-0.66178 6.7649-1.9854 1.5687-1.3236 2.353-3.2354 2.353-5.7355 0-2.0589-0.58826-3.6153-1.7648-4.6693-1.1765-1.054-3.1618-1.8015-5.9561-2.2427l-5.4414-0.8824c-4.7551-0.83334-8.1375-2.5614-10.147-5.184-2.0099-2.6226-3.0148-5.7232-3.0148-9.3018 0-4.9021 1.5932-8.6645 4.7796-11.287 3.1864-2.6227 7.5983-3.934 13.236-3.934 4.0198 0 7.488 0.63726 10.405 1.9118 2.9168 1.2746 5.2575 3.0148 7.0223 5.2208l-5.6619 6.0296c-1.3726-1.6177-3.0148-2.9045-4.9266-3.8604-1.9118-0.95592-4.1668-1.4339-6.7649-1.4339-5.5885 0-8.3826 2.304-8.3826 6.912 0 1.9608 0.58826 3.456 1.7648 4.4854 1.1765 1.0295 3.1864 1.7893 6.0296 2.2795l5.3678 0.95588c4.461 0.83337 7.7699 2.4756 9.9268 4.9266 2.157 2.4511 3.2354 5.5884 3.2354 9.4121 0 2.402-0.41667 4.5957-1.25 6.5811-0.83336 1.9854-2.0589 3.7011-3.6766 5.1472-1.6177 1.4461-3.6153 2.5614-5.9928 3.3457-2.3776 0.78434-5.1104 1.1765-8.1988 1.1765z" clip-rule="evenodd" fill="#2e3644" stroke-width=".35278"/>
  <path d="m12.514 145.27v7e-4c-1.4014-1.9189-3.3555-3.2942-5.8159-4.0971 2.1331-1.0189 3.8008-2.4026 4.9639-4.1212 1.2856-1.8998 1.9379-4.0675 1.9379-6.4406 0-4.6328-1.5563-8.173-4.626-10.523-3.0461-2.3317-7.5328-3.5141-13.334-3.5141h-6.514v7.6815h6.514c2.956 0 5.1546 0.54346 6.5336 1.617 1.3566 1.0568 2.0447 2.8155 2.0447 5.227 0 2.1833-0.74852 3.8896-2.2243 5.0724-1.4943 1.1996-3.6078 1.8078-6.2824 1.8078h-6.5857v7.051h8.4687c5.2811 0.1148 7.8483 2.673 7.8483 7.8219 0 2.3513-0.75691 4.207-2.25 5.5172-1.5032 1.3218-3.6318 1.9914-6.3272 1.9914h-7.7398v7.6112h7.6346c5.7594 0 10.255-1.314 13.362-3.9058 3.1205-2.6046 4.7032-6.3781 4.7032-11.214 0-2.9338-0.77763-5.4848-2.311-7.5833" clip-rule="evenodd" fill="#2e3644" stroke-width=".35278"/>
  <rect transform="scale(-1,1)" x="14.562" y="116.57" width="14.344" height="51.399" fill="url(#linearGradient5643)" stroke-width=".28024"/>
 </g>
</svg>
